{
  "accessors": [
    {
      "bufferView": 2,
      "componentType": 5126,
      "count": 425,
      "max": [
        9.44445514678955,
        96.0,
        117.5
      ],
      "min": [
        0.0,
        -96.0,
        -117.5
      ],
      "type": "VEC3"
    },
    {
      "bufferView": 2,
      "byteOffset": 5100,
      "componentType": 5126,
      "count": 425,
      "max": [
        1.0,
        0.16094565391540527,
        0.1143546774983406
      ],
      "min": [
        0.9846280217170715,
        -0.1746644377708435,
        -0.11429746448993683
      ],
      "type": "VEC3"
    },
    {
      "bufferView": 1,
      "componentType": 5126,
      "count": 425,
      "max": [
        0.9911215901374817,
        0.9891762137413025
      ],
      "min": [
        0.008878420107066631,
        0.010823845863342285
      ],
      "type": "VEC2"
    },
    {
      "bufferView": 0,
      "componentType": 5125,
      "count": 2304,
      "type": "SCALAR"
    },
    {
      "bufferView": 2,
      "byteOffset": 10200,
      "componentType": 5126,
      "count": 1584,
      "max": [
        156.913330078125,
        121.59285736083984,
        146.21629333496094
      ],
      "min": [
        -73.77932739257813,
        -161.49114990234375,
        -146.21629333496094
      ],
      "type": "VEC3"
    },
    {
      "bufferView": 2,
      "byteOffset": 29208,
      "componentType": 5126,
      "count": 1584,
      "max": [
        1.0,
        1.0,
        1.0
      ],
      "min": [
        -1.0,
        -1.0,
        -1.0
      ],
      "type": "VEC3"
    },
    {
      "bufferView": 1,
      "byteOffset": 3400,
      "componentType": 5126,
      "count": 1584,
      "max": [
        0.9913100004196167,
        0.9917829632759094
      ],
      "min": [
        0.008689971640706062,
        0.008217096328735352
      ],
      "type": "VEC2"
    },
    {
      "bufferView": 0,
      "byteOffset": 9216,
      "componentType": 5125,
      "count": 4614,
      "type": "SCALAR"
    },
    {
      "bufferView": 2,
      "byteOffset": 48216,
      "componentType": 5126,
      "count": 1811,
      "max": [
        10.745237350463867,
        114.56880950927734,
        146.21629333496094
      ],
      "min": [
        -10.681751251220703,
        -114.56880950927734,
        -146.21629333496094
      ],
      "type": "VEC3"
    },
    {
      "bufferView": 2,
      "byteOffset": 69948,
      "componentType": 5126,
      "count": 1811,
      "max": [
        1.0,
        1.0,
        1.0
      ],
      "min": [
        -1.0,
        -1.0,
        -1.0
      ],
      "type": "VEC3"
    },
    {
      "bufferView": 1,
      "byteOffset": 16072,
      "componentType": 5126,
      "count": 1811,
      "max": [
        0.9915157556533813,
        0.9916979074478149
      ],
      "min": [
        0.00848425179719925,
        0.008302092552185059
      ],
      "type": "VEC2"
    },
    {
      "bufferView": 0,
      "byteOffset": 27672,
      "componentType": 5125,
      "count": 5058,
      "type": "SCALAR"
    }
  ],
  "asset": {
    "extras": {
      "author": "Griffin Keller (https://sketchfab.com/griffinkeller)",
      "license": "CC-BY-NC-SA-4.0 (http://creativecommons.org/licenses/by-nc-sa/4.0/)",
      "source": "https://sketchfab.com/3d-models/retro-computer-monitor-b4e4f8a5685b45bfa2916a519a71176e",
      "title": "Retro Computer Monitor"
    },
    "generator": "Sketchfab-12.66.0",
    "version": "2.0"
  },
  "bufferViews": [
    {
      "buffer": 0,
      "byteLength": 47904,
      "name": "floatBufferViews",
      "target": 34963
    },
    {
      "buffer": 0,
      "byteLength": 30560,
      "byteOffset": 47904,
      "byteStride": 8,
      "name": "floatBufferViews",
      "target": 34962
    },
    {
      "buffer": 0,
      "byteLength": 91680,
      "byteOffset": 78464,
      "byteStride": 12,
      "name": "floatBufferViews",
      "target": 34962
    }
  ],
  "buffers": [
    {
      "byteLength": 170144,
      "uri": "scene.bin"
    }
  ],
  "extensionsRequired": [
    "KHR_materials_pbrSpecularGlossiness"
  ],
  "extensionsUsed": [
    "KHR_materials_pbrSpecularGlossiness"
  ],
  "images": [
    {
      "uri": "textures/Plane__0_diffuse.jpeg"
    },
    {
      "uri": "textures/material_diffuse.jpeg"
    },
    {
      "uri": "textures/Mat_0_diffuse.jpeg"
    }
  ],
  "materials": [
    {
      "doubleSided": true,
      "emissiveFactor": [
        0.8708079268292683,
        0.8708079268292683,
        0.8708079268292683
      ],
      "emissiveTexture": {
        "index": 0
      },
      "extensions": {
        "KHR_materials_pbrSpecularGlossiness": {
          "diffuseFactor": [
            0.3980564024390244,
            0.3980564024390244,
            0.3980564024390244,
            1.0
          ],
          "diffuseTexture": {
            "index": 0
          },
          "glossinessFactor": 0.4,
          "specularFactor": [
            0.0,
            0.0,
            0.0
          ]
        }
      },
      "name": "Plane__0"
    },
    {
      "doubleSided": true,
      "extensions": {
        "KHR_materials_pbrSpecularGlossiness": {
          "diffuseFactor": [
            1.0,
            1.0,
            1.0,
            1.0
          ],
          "diffuseTexture": {
            "index": 1
          },
          "glossinessFactor": 0.04756828460010884,
          "specularFactor": [
            0.0,
            0.0,
            0.0
          ]
        }
      },
      "name": "material"
    },
    {
      "doubleSided": true,
      "extensions": {
        "KHR_materials_pbrSpecularGlossiness": {
          "diffuseFactor": [
            1.0,
            1.0,
            1.0,
            1.0
          ],
          "diffuseTexture": {
            "index": 2
          },
          "glossinessFactor": 0.04756828460010884,
          "specularFactor": [
            0.0,
            0.0,
            0.0
          ]
        }
      },
      "name": "Mat_0"
    }
  ],
  "meshes": [
    {
      "name": "Plane__0",
      "primitives": [
        {
          "attributes": {
            "NORMAL": 1,
            "POSITION": 0,
            "TEXCOORD_0": 2
          },
          "indices": 3,
          "material": 0,
          "mode": 4
        }
      ]
    },
    {
      "name": "Box_Mat_0",
      "primitives": [
        {
          "attributes": {
            "NORMAL": 5,
            "POSITION": 4,
            "TEXCOORD_0": 6
          },
          "indices": 7,
          "material": 1,
          "mode": 4
        }
      ]
    },
    {
      "name": "FrontPanel_Mat_0",
      "primitives": [
        {
          "attributes": {
            "NORMAL": 9,
            "POSITION": 8,
            "TEXCOORD_0": 10
          },
          "indices": 11,
          "material": 2,
          "mode": 4
        }
      ]
    }
  ],
  "nodes": [
    {
      "children": [
        1
      ],
      "matrix": [
        0.0013605253874970635,
        -8.018071816261079e-19,
        0.0019116815398742132,
        0.0,
        0.0019116815398742132,
        -7.523128720500214e-20,
        -0.0013605253874970635,
        0.0,
        5.262109887776697e-19,
        0.002346392022445798,
        6.096363408713311e-19,
        0.0,
        -13.198761940002441,
        -5.683070997846741e-15,
        25.594276428222656,
        1.0
      ],
      "name": "Sketchfab_model"
    },
    {
      "children": [
        2
      ],
      "matrix": [
        1.0,
        0.0,
        0.0,
        0.0,
        0.0,
        0.0,
        1.0,
        0.0,
        0.0,
        -1.0,
        0.0,
        0.0,
        0.0,
        0.0,
        0.0,
        1.0
      ],
      "name": "6331170ef29543bb825e64d8c7b457d5.fbx"
    },
    {
      "children": [
        3,
        6,
        8
      ],
      "name": "RootNode"
    },
    {
      "children": [
        4
      ],
      "name": "Subdivision_Surface"
    },
    {
      "children": [
        5
      ],
      "matrix": [
        1.0551725625991821,
        0.0,
        0.0,
        0.0,
        0.0,
        1.0551725625991821,
        0.0,
        0.0,
        0.0,
        0.0,
        1.0551725625991821,
        0.0,
        88.237548828125,
        166.36007690429688,
        0.0,
        1.0
      ],
      "name": "Plane"
    },
    {
      "mesh": 0,
      "name": "Plane__0"
    },
    {
      "children": [
        7
      ],
      "matrix": [
        1.0551725625991821,
        0.0,
        0.0,
        0.0,
        0.0,
        1.0551725625991821,
        0.0,
        0.0,
        0.0,
        0.0,
        1.0551725625991821,
        0.0,
        -83.18160247802734,
        169.75823974609375,
        0.0,
        1.0
      ],
      "name": "Box"
    },
    {
      "mesh": 1,
      "name": "Box_Mat_0"
    },
    {
      "children": [
        9
      ],
      "matrix": [
        1.0551725625991821,
        0.0,
        0.0,
        0.0,
        0.0,
        1.0551725625991821,
        0.0,
        0.0,
        0.0,
        0.0,
        1.0551725625991821,
        0.0,
        83.19293212890625,
        177.16981506347656,
        0.0,
        1.0
      ],
      "name": "FrontPanel"
    },
    {
      "mesh": 2,
      "name": "FrontPanel_Mat_0"
    }
  ],
  "samplers": [
    {
      "magFilter": 9729,
      "minFilter": 9987,
      "wrapS": 10497,
      "wrapT": 10497
    }
  ],
  "scene": 0,
  "scenes": [
    {
      "name": "Sketchfab_Scene",
      "nodes": [
        0
      ]
    }
  ],
  "textures": [
    {
      "sampler": 0,
      "source": 0
    },
    {
      "sampler": 0,
      "source": 1
    },
    {
      "sampler": 0,
      "source": 2
    }
  ]
}
